solid OpenSCAD_Model
  facet normal -1 0 0
    outer loop
      vertex 0 36.9 0
      vertex 0 28.2 8.9
      vertex 0 36.9 15
    endloop
  endfacet
  facet normal -1 0 0
    outer loop
      vertex 0 0 0
      vertex 0 28.2 8.9
      vertex 0 36.9 0
    endloop
  endfacet
  facet normal -1 -0 0
    outer loop
      vertex 0 28.2 8.9
      vertex 0 0 0
      vertex 0 1.2 8.9
    endloop
  endfacet
  facet normal -1 0 0
    outer loop
      vertex 0 0 15
      vertex 0 1.2 8.9
      vertex 0 0 0
    endloop
  endfacet
  facet normal -1 0 0
    outer loop
      vertex 0 1.2 8.9
      vertex 0 0 15
      vertex 0 1.2 15
    endloop
  endfacet
  facet normal -1 -0 0
    outer loop
      vertex 0 36.9 15
      vertex 0 28.2 8.9
      vertex 0 28.2 15
    endloop
  endfacet
  facet normal 0 0 1
    outer loop
      vertex 53.7 1.2 15
      vertex 54.9 8.7 15
      vertex 53.7 8.7 15
    endloop
  endfacet
  facet normal 0 0 1
    outer loop
      vertex 54.9 8.7 15
      vertex 53.7 1.2 15
      vertex 54.9 0 15
    endloop
  endfacet
  facet normal 0 0 1
    outer loop
      vertex 0 0 15
      vertex 53.7 1.2 15
      vertex 0 1.2 15
    endloop
  endfacet
  facet normal 0 0 1
    outer loop
      vertex 53.7 1.2 15
      vertex 0 0 15
      vertex 54.9 0 15
    endloop
  endfacet
  facet normal 0 0 1
    outer loop
      vertex 54.9 36.9 15
      vertex 1.2 35.7 15
      vertex 54.9 35.7 15
    endloop
  endfacet
  facet normal -0 0 1
    outer loop
      vertex 0 36.9 15
      vertex 1.2 35.7 15
      vertex 54.9 36.9 15
    endloop
  endfacet
  facet normal 0 0 1
    outer loop
      vertex 0 28.2 15
      vertex 1.2 35.7 15
      vertex 0 36.9 15
    endloop
  endfacet
  facet normal 0 0 1
    outer loop
      vertex 1.2 35.7 15
      vertex 0 28.2 15
      vertex 1.2 28.2 15
    endloop
  endfacet
  facet normal 1 0 0
    outer loop
      vertex 54.9 8.7 15
      vertex 54.9 0 15
      vertex 54.9 8.7 8.9
    endloop
  endfacet
  facet normal 1 0 0
    outer loop
      vertex 54.9 35.7 8.9
      vertex 54.9 36.9 15
      vertex 54.9 35.7 15
    endloop
  endfacet
  facet normal 1 0 0
    outer loop
      vertex 54.9 36.9 15
      vertex 54.9 35.7 8.9
      vertex 54.9 36.9 0
    endloop
  endfacet
  facet normal 1 -0 0
    outer loop
      vertex 54.9 8.7 8.9
      vertex 54.9 36.9 0
      vertex 54.9 35.7 8.9
    endloop
  endfacet
  facet normal 1 0 0
    outer loop
      vertex 54.9 8.7 8.9
      vertex 54.9 0 0
      vertex 54.9 36.9 0
    endloop
  endfacet
  facet normal 1 0 0
    outer loop
      vertex 54.9 0 0
      vertex 54.9 8.7 8.9
      vertex 54.9 0 15
    endloop
  endfacet
  facet normal 0 0 -1
    outer loop
      vertex 0 0 0
      vertex 54.9 36.9 0
      vertex 54.9 0 0
    endloop
  endfacet
  facet normal -0 0 -1
    outer loop
      vertex 54.9 36.9 0
      vertex 0 0 0
      vertex 0 36.9 0
    endloop
  endfacet
  facet normal 0 -1 0
    outer loop
      vertex 0 0 0
      vertex 54.9 0 15
      vertex 0 0 15
    endloop
  endfacet
  facet normal 0 -1 -0
    outer loop
      vertex 54.9 0 15
      vertex 0 0 0
      vertex 54.9 0 0
    endloop
  endfacet
  facet normal 0 1 -0
    outer loop
      vertex 54.9 36.9 0
      vertex 0 36.9 15
      vertex 54.9 36.9 15
    endloop
  endfacet
  facet normal 0 1 0
    outer loop
      vertex 0 36.9 15
      vertex 54.9 36.9 0
      vertex 0 36.9 0
    endloop
  endfacet
  facet normal 1 -0 0
    outer loop
      vertex 1.2 32.2571 2.26512
      vertex 1.2 35.7 0.9
      vertex 1.2 35.7 15
    endloop
  endfacet
  facet normal 1 0 0
    outer loop
      vertex 1.2 35.7 0.9
      vertex 1.2 32.2571 2.26512
      vertex 1.2 33.3178 0.9
    endloop
  endfacet
  facet normal 1 -0 0
    outer loop
      vertex 1.2 28.2 8.9
      vertex 1.2 32.2571 2.26512
      vertex 1.2 35.7 15
    endloop
  endfacet
  facet normal 1 0 0
    outer loop
      vertex 1.2 32.2571 2.26512
      vertex 1.2 28.2 8.9
      vertex 1.2 30.8914 2.87075
    endloop
  endfacet
  facet normal 1 0 0
    outer loop
      vertex 1.2 30.8914 2.87075
      vertex 1.2 28.2 8.9
      vertex 1.2 30.6 3
    endloop
  endfacet
  facet normal 1 0 0
    outer loop
      vertex 1.2 30.6 3
      vertex 1.2 28.2 8.9
      vertex 1.2 30.3086 2.87075
    endloop
  endfacet
  facet normal 1 0 0
    outer loop
      vertex 1.2 28.2 8.9
      vertex 1.2 35.7 15
      vertex 1.2 28.2 15
    endloop
  endfacet
  facet normal 1 0 0
    outer loop
      vertex 1.2 30.3086 2.87075
      vertex 1.2 28.2 8.9
      vertex 1.2 28.9429 2.26512
    endloop
  endfacet
  facet normal 1 0 0
    outer loop
      vertex 1.2 28.2 8.9
      vertex 1.2 27.8822 0.9
      vertex 1.2 28.9429 2.26512
    endloop
  endfacet
  facet normal 1 0 -0
    outer loop
      vertex 1.2 27.8822 0.9
      vertex 1.2 28.2 8.9
      vertex 1.2 1.2 8.9
    endloop
  endfacet
  facet normal 1 -0 0
    outer loop
      vertex 1.2 27.8822 0.9
      vertex 1.2 35.7 0.9
      vertex 1.2 33.3178 0.9
    endloop
  endfacet
  facet normal 1 0 0
    outer loop
      vertex 1.2 27.8822 0.9
      vertex 1.2 1.2 0.9
      vertex 1.2 35.7 0.9
    endloop
  endfacet
  facet normal 1 0 0
    outer loop
      vertex 1.2 1.2 0.9
      vertex 1.2 27.8822 0.9
      vertex 1.2 1.2 8.9
    endloop
  endfacet
  facet normal -1 0 0
    outer loop
      vertex 53.7 35.7 0.9
      vertex 53.7 9.01777 0.9
      vertex 53.7 35.7 8.9
    endloop
  endfacet
  facet normal -1 0 0
    outer loop
      vertex 53.7 35.7 0.9
      vertex 53.7 3.58223 0.9
      vertex 53.7 9.01777 0.9
    endloop
  endfacet
  facet normal -1 0 -0
    outer loop
      vertex 53.7 3.58223 0.9
      vertex 53.7 35.7 0.9
      vertex 53.7 1.2 0.9
    endloop
  endfacet
  facet normal -1 0 0
    outer loop
      vertex 53.7 9.01777 0.9
      vertex 53.7 8.7 8.9
      vertex 53.7 35.7 8.9
    endloop
  endfacet
  facet normal -1 0 0
    outer loop
      vertex 53.7 7.95709 2.26512
      vertex 53.7 8.7 8.9
      vertex 53.7 9.01777 0.9
    endloop
  endfacet
  facet normal -1 0 0
    outer loop
      vertex 53.7 6.59145 2.87075
      vertex 53.7 8.7 8.9
      vertex 53.7 7.95709 2.26512
    endloop
  endfacet
  facet normal -1 0 0
    outer loop
      vertex 53.7 6.3 3
      vertex 53.7 8.7 8.9
      vertex 53.7 6.59145 2.87075
    endloop
  endfacet
  facet normal -1 0 0
    outer loop
      vertex 53.7 6.00855 2.87075
      vertex 53.7 8.7 8.9
      vertex 53.7 6.3 3
    endloop
  endfacet
  facet normal -1 0 0
    outer loop
      vertex 53.7 4.64291 2.26512
      vertex 53.7 8.7 8.9
      vertex 53.7 6.00855 2.87075
    endloop
  endfacet
  facet normal -1 -0 0
    outer loop
      vertex 53.7 8.7 8.9
      vertex 53.7 4.64291 2.26512
      vertex 53.7 1.2 15
    endloop
  endfacet
  facet normal -1 0 0
    outer loop
      vertex 53.7 1.2 0.9
      vertex 53.7 4.64291 2.26512
      vertex 53.7 3.58223 0.9
    endloop
  endfacet
  facet normal -1 -0 0
    outer loop
      vertex 53.7 4.64291 2.26512
      vertex 53.7 1.2 0.9
      vertex 53.7 1.2 15
    endloop
  endfacet
  facet normal -1 0 0
    outer loop
      vertex 53.7 8.7 8.9
      vertex 53.7 1.2 15
      vertex 53.7 8.7 15
    endloop
  endfacet
  facet normal 0 -1 0
    outer loop
      vertex 7.95709 35.7 2.26512
      vertex 54.9 35.7 15
      vertex 1.2 35.7 15
    endloop
  endfacet
  facet normal 0 -1 0
    outer loop
      vertex 6.59145 35.7 2.87075
      vertex 1.2 35.7 15
      vertex 6.3 35.7 3
    endloop
  endfacet
  facet normal 0 -1 0
    outer loop
      vertex 1.2 35.7 15
      vertex 6.00855 35.7 2.87075
      vertex 6.3 35.7 3
    endloop
  endfacet
  facet normal 0 -1 0
    outer loop
      vertex 1.2 35.7 15
      vertex 4.64291 35.7 2.26512
      vertex 6.00855 35.7 2.87075
    endloop
  endfacet
  facet normal 0 -1 0
    outer loop
      vertex 1.2 35.7 0.9
      vertex 4.64291 35.7 2.26512
      vertex 1.2 35.7 15
    endloop
  endfacet
  facet normal 0 -1 -0
    outer loop
      vertex 3.58223 35.7 0.9
      vertex 1.2 35.7 0.9
      vertex 9.01777 35.7 0.9
    endloop
  endfacet
  facet normal 0 -1 0
    outer loop
      vertex 4.64291 35.7 2.26512
      vertex 1.2 35.7 0.9
      vertex 3.58223 35.7 0.9
    endloop
  endfacet
  facet normal 0 -1 -0
    outer loop
      vertex 54.9 35.7 15
      vertex 53.7 35.7 8.9
      vertex 54.9 35.7 8.9
    endloop
  endfacet
  facet normal 0 -1 0
    outer loop
      vertex 7.95709 35.7 2.26512
      vertex 1.2 35.7 15
      vertex 6.59145 35.7 2.87075
    endloop
  endfacet
  facet normal 0 -1 0
    outer loop
      vertex 9.01777 35.7 0.9
      vertex 54.9 35.7 15
      vertex 7.95709 35.7 2.26512
    endloop
  endfacet
  facet normal 0 -1 0
    outer loop
      vertex 54.9 35.7 15
      vertex 9.01777 35.7 0.9
      vertex 53.7 35.7 8.9
    endloop
  endfacet
  facet normal 0 -1 0
    outer loop
      vertex 9.01777 35.7 0.9
      vertex 53.7 35.7 0.9
      vertex 53.7 35.7 8.9
    endloop
  endfacet
  facet normal 0 -1 0
    outer loop
      vertex 53.7 35.7 0.9
      vertex 9.01777 35.7 0.9
      vertex 1.2 35.7 0.9
    endloop
  endfacet
  facet normal -0 0 1
    outer loop
      vertex 1.2 35.7 0.9
      vertex 53.7 1.2 0.9
      vertex 53.7 35.7 0.9
    endloop
  endfacet
  facet normal 0 0 1
    outer loop
      vertex 53.7 1.2 0.9
      vertex 1.2 35.7 0.9
      vertex 1.2 1.2 0.9
    endloop
  endfacet
  facet normal 0 1 -0
    outer loop
      vertex 46.9429 1.2 2.26512
      vertex 0 1.2 15
      vertex 53.7 1.2 15
    endloop
  endfacet
  facet normal 0 1 0
    outer loop
      vertex 48.3086 1.2 2.87075
      vertex 53.7 1.2 15
      vertex 48.6 1.2 3
    endloop
  endfacet
  facet normal 0 1 0
    outer loop
      vertex 53.7 1.2 15
      vertex 48.8914 1.2 2.87075
      vertex 48.6 1.2 3
    endloop
  endfacet
  facet normal 0 1 0
    outer loop
      vertex 53.7 1.2 15
      vertex 50.2571 1.2 2.26512
      vertex 48.8914 1.2 2.87075
    endloop
  endfacet
  facet normal 0 1 -0
    outer loop
      vertex 53.7 1.2 0.9
      vertex 50.2571 1.2 2.26512
      vertex 53.7 1.2 15
    endloop
  endfacet
  facet normal 0 1 0
    outer loop
      vertex 51.3178 1.2 0.9
      vertex 53.7 1.2 0.9
      vertex 45.8822 1.2 0.9
    endloop
  endfacet
  facet normal 0 1 0
    outer loop
      vertex 50.2571 1.2 2.26512
      vertex 53.7 1.2 0.9
      vertex 51.3178 1.2 0.9
    endloop
  endfacet
  facet normal 0 1 0
    outer loop
      vertex 0 1.2 15
      vertex 1.2 1.2 8.9
      vertex 0 1.2 8.9
    endloop
  endfacet
  facet normal 0 1 0
    outer loop
      vertex 46.9429 1.2 2.26512
      vertex 53.7 1.2 15
      vertex 48.3086 1.2 2.87075
    endloop
  endfacet
  facet normal 0 1 -0
    outer loop
      vertex 45.8822 1.2 0.9
      vertex 0 1.2 15
      vertex 46.9429 1.2 2.26512
    endloop
  endfacet
  facet normal 0 1 0
    outer loop
      vertex 0 1.2 15
      vertex 45.8822 1.2 0.9
      vertex 1.2 1.2 8.9
    endloop
  endfacet
  facet normal 0 1 0
    outer loop
      vertex 45.8822 1.2 0.9
      vertex 1.2 1.2 0.9
      vertex 1.2 1.2 8.9
    endloop
  endfacet
  facet normal 0 1 0
    outer loop
      vertex 1.2 1.2 0.9
      vertex 45.8822 1.2 0.9
      vertex 53.7 1.2 0.9
    endloop
  endfacet
  facet normal 0.931438 0.147525 0.332656
    outer loop
      vertex 12.15 30.6 0.9
      vertex 9.48604 31.6352 7.9
      vertex 9.65 30.6 7.9
    endloop
  endfacet
  facet normal 0.931438 0.147525 0.332656
    outer loop
      vertex 11.8637 32.4077 0.9
      vertex 9.48604 31.6352 7.9
      vertex 12.15 30.6 0.9
    endloop
  endfacet
  facet normal -0.666836 -0.666835 0.332656
    outer loop
      vertex 1.56725 27.1615 0.9
      vertex 4.33092 27.8898 7.9
      vertex 3.58979 28.6309 7.9
    endloop
  endfacet
  facet normal -0.666836 -0.666835 0.332656
    outer loop
      vertex 4.33092 27.8898 7.9
      vertex 1.56725 27.1615 0.9
      vertex 2.86146 25.8673 0.9
    endloop
  endfacet
  facet normal 0.666836 -0.666835 0.332656
    outer loop
      vertex 8.26908 27.8898 7.9
      vertex 11.0327 27.1615 0.9
      vertex 9.01021 28.6309 7.9
    endloop
  endfacet
  facet normal 0.666836 -0.666835 0.332656
    outer loop
      vertex 11.0327 27.1615 0.9
      vertex 8.26908 27.8898 7.9
      vertex 9.73854 25.8673 0.9
    endloop
  endfacet
  facet normal 0.428135 0.840262 0.332656
    outer loop
      vertex 9.73854 35.3327 0.9
      vertex 7.95709 35.7 2.26512
      vertex 7.33521 33.786 7.9
    endloop
  endfacet
  facet normal 0.428136 0.840261 0.332657
    outer loop
      vertex 7.95709 35.7 2.26512
      vertex 9.73854 35.3327 0.9
      vertex 9.01777 35.7 0.9
    endloop
  endfacet
  facet normal -0.931438 0.147525 0.332656
    outer loop
      vertex 1.2 30.6 3
      vertex 3.11396 31.6352 7.9
      vertex 1.2 30.8914 2.87075
    endloop
  endfacet
  facet normal -0.931438 0.147525 0.332656
    outer loop
      vertex 3.11396 31.6352 7.9
      vertex 1.2 30.6 3
      vertex 2.95 30.6 7.9
    endloop
  endfacet
  facet normal -0.840262 -0.428135 0.332656
    outer loop
      vertex 1.56725 27.1615 0.9
      vertex 1.2 28.9429 2.26512
      vertex 1.2 27.8822 0.9
    endloop
  endfacet
  facet normal -0.840262 -0.428135 0.332656
    outer loop
      vertex 1.2 28.9429 2.26512
      vertex 1.56725 27.1615 0.9
      vertex 3.11396 29.5648 7.9
    endloop
  endfacet
  facet normal 0 0 -1
    outer loop
      vertex 11.8637 28.7923 0.9
      vertex 7.96435 30.0592 0.9
      vertex 8.05 30.6 0.9
    endloop
  endfacet
  facet normal 0 0 -1
    outer loop
      vertex 9.73854 25.8673 0.9
      vertex 7.71578 29.5714 0.9
      vertex 7.96435 30.0592 0.9
    endloop
  endfacet
  facet normal 0 0 -1
    outer loop
      vertex 9.73854 25.8673 0.9
      vertex 7.32862 29.1842 0.9
      vertex 7.71578 29.5714 0.9
    endloop
  endfacet
  facet normal 0 0 -1
    outer loop
      vertex 8.10775 25.0363 0.9
      vertex 6.84078 28.9357 0.9
      vertex 7.32862 29.1842 0.9
    endloop
  endfacet
  facet normal 0 0 -1
    outer loop
      vertex 6.3 24.75 0.9
      vertex 6.84078 28.9357 0.9
      vertex 8.10775 25.0363 0.9
    endloop
  endfacet
  facet normal 0 0 -1
    outer loop
      vertex 6.3 24.75 0.9
      vertex 6.3 28.85 0.9
      vertex 6.84078 28.9357 0.9
    endloop
  endfacet
  facet normal 0 0 -1
    outer loop
      vertex 6.3 24.75 0.9
      vertex 5.75922 28.9357 0.9
      vertex 6.3 28.85 0.9
    endloop
  endfacet
  facet normal 0 0 -1
    outer loop
      vertex 4.49225 25.0363 0.9
      vertex 5.75922 28.9357 0.9
      vertex 6.3 24.75 0.9
    endloop
  endfacet
  facet normal -0 0 -1
    outer loop
      vertex 5.75922 28.9357 0.9
      vertex 4.49225 25.0363 0.9
      vertex 5.27138 29.1842 0.9
    endloop
  endfacet
  facet normal 0 0 -1
    outer loop
      vertex 2.86146 25.8673 0.9
      vertex 5.27138 29.1842 0.9
      vertex 4.49225 25.0363 0.9
    endloop
  endfacet
  facet normal 0 0 -1
    outer loop
      vertex 1.56725 27.1615 0.9
      vertex 4.88422 29.5714 0.9
      vertex 2.86146 25.8673 0.9
    endloop
  endfacet
  facet normal -0 0 -1
    outer loop
      vertex 5.27138 29.1842 0.9
      vertex 2.86146 25.8673 0.9
      vertex 4.88422 29.5714 0.9
    endloop
  endfacet
  facet normal 0 0 -1
    outer loop
      vertex 8.05 30.6 0.9
      vertex 12.15 30.6 0.9
      vertex 11.8637 28.7923 0.9
    endloop
  endfacet
  facet normal 0 0 -1
    outer loop
      vertex 7.96435 30.0592 0.9
      vertex 11.8637 28.7923 0.9
      vertex 11.0327 27.1615 0.9
    endloop
  endfacet
  facet normal 0 0 -1
    outer loop
      vertex 12.15 30.6 0.9
      vertex 8.05 30.6 0.9
      vertex 11.8637 32.4077 0.9
    endloop
  endfacet
  facet normal 0 0 -1
    outer loop
      vertex 7.96435 30.0592 0.9
      vertex 11.0327 27.1615 0.9
      vertex 9.73854 25.8673 0.9
    endloop
  endfacet
  facet normal 0 0 -1
    outer loop
      vertex 7.96435 31.1408 0.9
      vertex 11.8637 32.4077 0.9
      vertex 8.05 30.6 0.9
    endloop
  endfacet
  facet normal -0 0 -1
    outer loop
      vertex 11.8637 32.4077 0.9
      vertex 7.96435 31.1408 0.9
      vertex 11.0327 34.0385 0.9
    endloop
  endfacet
  facet normal 0 0 -1
    outer loop
      vertex 7.32862 29.1842 0.9
      vertex 9.73854 25.8673 0.9
      vertex 8.10775 25.0363 0.9
    endloop
  endfacet
  facet normal 0 0 -1
    outer loop
      vertex 7.71578 31.6286 0.9
      vertex 11.0327 34.0385 0.9
      vertex 7.96435 31.1408 0.9
    endloop
  endfacet
  facet normal -0 0 -1
    outer loop
      vertex 11.0327 34.0385 0.9
      vertex 7.71578 31.6286 0.9
      vertex 9.73854 35.3327 0.9
    endloop
  endfacet
  facet normal 0 0 -1
    outer loop
      vertex 7.32862 32.0158 0.9
      vertex 9.73854 35.3327 0.9
      vertex 7.71578 31.6286 0.9
    endloop
  endfacet
  facet normal -0 0 -1
    outer loop
      vertex 9.73854 35.3327 0.9
      vertex 7.32862 32.0158 0.9
      vertex 9.01777 35.7 0.9
    endloop
  endfacet
  facet normal 0 0 -1
    outer loop
      vertex 6.84078 32.2643 0.9
      vertex 9.01777 35.7 0.9
      vertex 7.32862 32.0158 0.9
    endloop
  endfacet
  facet normal 0 0 -1
    outer loop
      vertex 6.3 32.35 0.9
      vertex 9.01777 35.7 0.9
      vertex 6.84078 32.2643 0.9
    endloop
  endfacet
  facet normal 0 0 -1
    outer loop
      vertex 3.58223 35.7 0.9
      vertex 6.3 32.35 0.9
      vertex 5.75922 32.2643 0.9
    endloop
  endfacet
  facet normal 0 0 -1
    outer loop
      vertex 3.58223 35.7 0.9
      vertex 5.75922 32.2643 0.9
      vertex 5.27138 32.0158 0.9
    endloop
  endfacet
  facet normal 0 0 -1
    outer loop
      vertex 6.3 32.35 0.9
      vertex 3.58223 35.7 0.9
      vertex 9.01777 35.7 0.9
    endloop
  endfacet
  facet normal 0 0 -1
    outer loop
      vertex 2.86146 35.3327 0.9
      vertex 5.27138 32.0158 0.9
      vertex 4.88422 31.6286 0.9
    endloop
  endfacet
  facet normal 0 0 -1
    outer loop
      vertex 1.2 33.3178 0.9
      vertex 4.88422 31.6286 0.9
      vertex 4.63565 31.1408 0.9
    endloop
  endfacet
  facet normal 0 0 -1
    outer loop
      vertex 1.2 33.3178 0.9
      vertex 4.63565 31.1408 0.9
      vertex 4.55 30.6 0.9
    endloop
  endfacet
  facet normal 0 0 -1
    outer loop
      vertex 1.2 27.8822 0.9
      vertex 4.88422 29.5714 0.9
      vertex 1.56725 27.1615 0.9
    endloop
  endfacet
  facet normal -0 0 -1
    outer loop
      vertex 4.88422 29.5714 0.9
      vertex 1.2 27.8822 0.9
      vertex 4.63565 30.0592 0.9
    endloop
  endfacet
  facet normal 0 0 -1
    outer loop
      vertex 1.2 33.3178 0.9
      vertex 4.55 30.6 0.9
      vertex 1.2 27.8822 0.9
    endloop
  endfacet
  facet normal -0 0 -1
    outer loop
      vertex 4.63565 30.0592 0.9
      vertex 1.2 27.8822 0.9
      vertex 4.55 30.6 0.9
    endloop
  endfacet
  facet normal 0 0 -1
    outer loop
      vertex 4.88422 31.6286 0.9
      vertex 1.2 33.3178 0.9
      vertex 1.56725 34.0385 0.9
    endloop
  endfacet
  facet normal 0 0 -1
    outer loop
      vertex 5.27138 32.0158 0.9
      vertex 2.86146 35.3327 0.9
      vertex 3.58223 35.7 0.9
    endloop
  endfacet
  facet normal 0 0 -1
    outer loop
      vertex 4.88422 31.6286 0.9
      vertex 1.56725 34.0385 0.9
      vertex 2.86146 35.3327 0.9
    endloop
  endfacet
  facet normal 0.428135 -0.840262 0.332656
    outer loop
      vertex 9.73854 25.8673 0.9
      vertex 7.33521 27.414 7.9
      vertex 8.10775 25.0363 0.9
    endloop
  endfacet
  facet normal 0.840262 -0.428135 0.332656
    outer loop
      vertex 11.8637 28.7923 0.9
      vertex 9.48604 29.5648 7.9
      vertex 11.0327 27.1615 0.9
    endloop
  endfacet
  facet normal 0.840262 0.428135 0.332656
    outer loop
      vertex 11.0327 34.0385 0.9
      vertex 9.48604 31.6352 7.9
      vertex 11.8637 32.4077 0.9
    endloop
  endfacet
  facet normal -0.666836 0.666835 0.332656
    outer loop
      vertex 2.86146 35.3327 0.9
      vertex 3.58979 32.5691 7.9
      vertex 4.33092 33.3102 7.9
    endloop
  endfacet
  facet normal -0.666835 0.666836 0.332656
    outer loop
      vertex 3.58979 32.5691 7.9
      vertex 2.86146 35.3327 0.9
      vertex 1.56725 34.0385 0.9
    endloop
  endfacet
  facet normal 0.147528 0.931437 0.332656
    outer loop
      vertex 7.33521 33.786 7.9
      vertex 6.3 35.7 3
      vertex 6.3 33.95 7.9
    endloop
  endfacet
  facet normal 0.147525 0.931437 0.332657
    outer loop
      vertex 6.3 35.7 3
      vertex 7.33521 33.786 7.9
      vertex 6.59145 35.7 2.87075
    endloop
  endfacet
  facet normal -0.840262 -0.428136 0.332656
    outer loop
      vertex 3.11396 29.5648 7.9
      vertex 1.56725 27.1615 0.9
      vertex 3.58979 28.6309 7.9
    endloop
  endfacet
  facet normal 0.428135 -0.840262 0.332656
    outer loop
      vertex 8.26908 27.8898 7.9
      vertex 7.33521 27.414 7.9
      vertex 9.73854 25.8673 0.9
    endloop
  endfacet
  facet normal 0.931438 -0.147525 0.332656
    outer loop
      vertex 12.15 30.6 0.9
      vertex 9.48604 29.5648 7.9
      vertex 11.8637 28.7923 0.9
    endloop
  endfacet
  facet normal -0.840262 0.428135 0.332656
    outer loop
      vertex 1.2 32.2571 2.26512
      vertex 1.56725 34.0385 0.9
      vertex 1.2 33.3178 0.9
    endloop
  endfacet
  facet normal -0.840262 0.428135 0.332656
    outer loop
      vertex 1.56725 34.0385 0.9
      vertex 1.2 32.2571 2.26512
      vertex 3.11396 31.6352 7.9
    endloop
  endfacet
  facet normal -0.931438 0.147525 0.332656
    outer loop
      vertex 1.2 32.2571 2.26512
      vertex 1.2 30.8914 2.87075
      vertex 3.11396 31.6352 7.9
    endloop
  endfacet
  facet normal -0.428136 0.840261 0.332657
    outer loop
      vertex 2.86146 35.3327 0.9
      vertex 4.64291 35.7 2.26512
      vertex 3.58223 35.7 0.9
    endloop
  endfacet
  facet normal -0.428135 0.840262 0.332657
    outer loop
      vertex 4.64291 35.7 2.26512
      vertex 2.86146 35.3327 0.9
      vertex 5.26479 33.786 7.9
    endloop
  endfacet
  facet normal 0.840262 0.428135 0.332656
    outer loop
      vertex 11.0327 34.0385 0.9
      vertex 9.01021 32.5691 7.9
      vertex 9.48604 31.6352 7.9
    endloop
  endfacet
  facet normal 0.147526 0.931437 0.332657
    outer loop
      vertex 7.95709 35.7 2.26512
      vertex 6.59145 35.7 2.87075
      vertex 7.33521 33.786 7.9
    endloop
  endfacet
  facet normal -0.147528 0.931437 0.332656
    outer loop
      vertex 6.3 35.7 3
      vertex 5.26479 33.786 7.9
      vertex 6.3 33.95 7.9
    endloop
  endfacet
  facet normal -0.147525 0.931438 0.332657
    outer loop
      vertex 5.26479 33.786 7.9
      vertex 6.3 35.7 3
      vertex 6.00855 35.7 2.87075
    endloop
  endfacet
  facet normal -0.931438 -0.147524 0.332656
    outer loop
      vertex 3.11396 29.5648 7.9
      vertex 1.2 30.6 3
      vertex 1.2 30.3086 2.87075
    endloop
  endfacet
  facet normal -0.931438 -0.147525 0.332656
    outer loop
      vertex 1.2 30.6 3
      vertex 3.11396 29.5648 7.9
      vertex 2.95 30.6 7.9
    endloop
  endfacet
  facet normal -0.931438 -0.147526 0.332656
    outer loop
      vertex 1.2 30.3086 2.87075
      vertex 1.2 28.9429 2.26512
      vertex 3.11396 29.5648 7.9
    endloop
  endfacet
  facet normal -0.428135 -0.840262 0.332656
    outer loop
      vertex 5.26479 27.414 7.9
      vertex 2.86146 25.8673 0.9
      vertex 4.49225 25.0363 0.9
    endloop
  endfacet
  facet normal -0.147526 -0.931438 0.332656
    outer loop
      vertex 6.3 27.25 7.9
      vertex 5.26479 27.414 7.9
      vertex 6.3 24.75 0.9
    endloop
  endfacet
  facet normal -0.147525 -0.931438 0.332656
    outer loop
      vertex 5.26479 27.414 7.9
      vertex 4.49225 25.0363 0.9
      vertex 6.3 24.75 0.9
    endloop
  endfacet
  facet normal 0.147526 -0.931438 0.332656
    outer loop
      vertex 6.3 27.25 7.9
      vertex 6.3 24.75 0.9
      vertex 7.33521 27.414 7.9
    endloop
  endfacet
  facet normal 0.147525 -0.931438 0.332656
    outer loop
      vertex 7.33521 27.414 7.9
      vertex 6.3 24.75 0.9
      vertex 8.10775 25.0363 0.9
    endloop
  endfacet
  facet normal 0.931438 -0.147525 0.332656
    outer loop
      vertex 9.65 30.6 7.9
      vertex 9.48604 29.5648 7.9
      vertex 12.15 30.6 0.9
    endloop
  endfacet
  facet normal 0 0 1
    outer loop
      vertex 8.05 30.6 7.9
      vertex 9.65 30.6 7.9
      vertex 9.48604 31.6352 7.9
    endloop
  endfacet
  facet normal 0 0 1
    outer loop
      vertex 7.96435 31.1408 7.9
      vertex 9.48604 31.6352 7.9
      vertex 9.01021 32.5691 7.9
    endloop
  endfacet
  facet normal 0 0 1
    outer loop
      vertex 9.65 30.6 7.9
      vertex 8.05 30.6 7.9
      vertex 9.48604 29.5648 7.9
    endloop
  endfacet
  facet normal 0 0 1
    outer loop
      vertex 7.71578 31.6286 7.9
      vertex 9.01021 32.5691 7.9
      vertex 8.26908 33.3102 7.9
    endloop
  endfacet
  facet normal -0 0 1
    outer loop
      vertex 7.96435 30.0592 7.9
      vertex 9.48604 29.5648 7.9
      vertex 8.05 30.6 7.9
    endloop
  endfacet
  facet normal 0 0 1
    outer loop
      vertex 9.48604 29.5648 7.9
      vertex 7.96435 30.0592 7.9
      vertex 9.01021 28.6309 7.9
    endloop
  endfacet
  facet normal 0 0 1
    outer loop
      vertex 9.48604 31.6352 7.9
      vertex 7.96435 31.1408 7.9
      vertex 8.05 30.6 7.9
    endloop
  endfacet
  facet normal 0 0 1
    outer loop
      vertex 9.01021 32.5691 7.9
      vertex 7.71578 31.6286 7.9
      vertex 7.96435 31.1408 7.9
    endloop
  endfacet
  facet normal 0 0 1
    outer loop
      vertex 7.32862 32.0158 7.9
      vertex 8.26908 33.3102 7.9
      vertex 7.33521 33.786 7.9
    endloop
  endfacet
  facet normal 0 0 1
    outer loop
      vertex 8.26908 33.3102 7.9
      vertex 7.32862 32.0158 7.9
      vertex 7.71578 31.6286 7.9
    endloop
  endfacet
  facet normal 0 0 1
    outer loop
      vertex 7.33521 33.786 7.9
      vertex 6.84078 32.2643 7.9
      vertex 7.32862 32.0158 7.9
    endloop
  endfacet
  facet normal 0 0 1
    outer loop
      vertex 6.3 33.95 7.9
      vertex 6.84078 32.2643 7.9
      vertex 7.33521 33.786 7.9
    endloop
  endfacet
  facet normal 0 0 1
    outer loop
      vertex 6.3 33.95 7.9
      vertex 6.3 32.35 7.9
      vertex 6.84078 32.2643 7.9
    endloop
  endfacet
  facet normal 0 0 1
    outer loop
      vertex 6.3 33.95 7.9
      vertex 5.75922 32.2643 7.9
      vertex 6.3 32.35 7.9
    endloop
  endfacet
  facet normal -0 0 1
    outer loop
      vertex 5.26479 33.786 7.9
      vertex 5.75922 32.2643 7.9
      vertex 6.3 33.95 7.9
    endloop
  endfacet
  facet normal 0 0 1
    outer loop
      vertex 5.75922 32.2643 7.9
      vertex 5.26479 33.786 7.9
      vertex 5.27138 32.0158 7.9
    endloop
  endfacet
  facet normal -0 0 1
    outer loop
      vertex 4.33092 33.3102 7.9
      vertex 5.27138 32.0158 7.9
      vertex 5.26479 33.786 7.9
    endloop
  endfacet
  facet normal 0 0 1
    outer loop
      vertex 5.27138 32.0158 7.9
      vertex 4.33092 33.3102 7.9
      vertex 4.88422 31.6286 7.9
    endloop
  endfacet
  facet normal 0 0 1
    outer loop
      vertex 4.88422 31.6286 7.9
      vertex 3.58979 32.5691 7.9
      vertex 4.63565 31.1408 7.9
    endloop
  endfacet
  facet normal -0 0 1
    outer loop
      vertex 3.58979 32.5691 7.9
      vertex 4.88422 31.6286 7.9
      vertex 4.33092 33.3102 7.9
    endloop
  endfacet
  facet normal -0 0 1
    outer loop
      vertex 7.71578 29.5714 7.9
      vertex 9.01021 28.6309 7.9
      vertex 7.96435 30.0592 7.9
    endloop
  endfacet
  facet normal 0 0 1
    outer loop
      vertex 9.01021 28.6309 7.9
      vertex 7.71578 29.5714 7.9
      vertex 8.26908 27.8898 7.9
    endloop
  endfacet
  facet normal -0 0 1
    outer loop
      vertex 7.32862 29.1842 7.9
      vertex 8.26908 27.8898 7.9
      vertex 7.71578 29.5714 7.9
    endloop
  endfacet
  facet normal 0 0 1
    outer loop
      vertex 8.26908 27.8898 7.9
      vertex 7.32862 29.1842 7.9
      vertex 7.33521 27.414 7.9
    endloop
  endfacet
  facet normal -0 0 1
    outer loop
      vertex 6.84078 28.9357 7.9
      vertex 7.33521 27.414 7.9
      vertex 7.32862 29.1842 7.9
    endloop
  endfacet
  facet normal -0 0 1
    outer loop
      vertex 6.3 28.85 7.9
      vertex 7.33521 27.414 7.9
      vertex 6.84078 28.9357 7.9
    endloop
  endfacet
  facet normal 0 0 1
    outer loop
      vertex 6.3 28.85 7.9
      vertex 6.3 27.25 7.9
      vertex 7.33521 27.414 7.9
    endloop
  endfacet
  facet normal 0 0 1
    outer loop
      vertex 5.75922 28.9357 7.9
      vertex 6.3 27.25 7.9
      vertex 6.3 28.85 7.9
    endloop
  endfacet
  facet normal 0 0 1
    outer loop
      vertex 5.26479 27.414 7.9
      vertex 5.75922 28.9357 7.9
      vertex 5.27138 29.1842 7.9
    endloop
  endfacet
  facet normal 0 0 1
    outer loop
      vertex 5.75922 28.9357 7.9
      vertex 5.26479 27.414 7.9
      vertex 6.3 27.25 7.9
    endloop
  endfacet
  facet normal 0 0 1
    outer loop
      vertex 4.33092 27.8898 7.9
      vertex 5.27138 29.1842 7.9
      vertex 4.88422 29.5714 7.9
    endloop
  endfacet
  facet normal 0 0 1
    outer loop
      vertex 3.58979 28.6309 7.9
      vertex 4.88422 29.5714 7.9
      vertex 4.63565 30.0592 7.9
    endloop
  endfacet
  facet normal 0 0 1
    outer loop
      vertex 5.27138 29.1842 7.9
      vertex 4.33092 27.8898 7.9
      vertex 5.26479 27.414 7.9
    endloop
  endfacet
  facet normal 0 0 1
    outer loop
      vertex 3.11396 29.5648 7.9
      vertex 4.63565 30.0592 7.9
      vertex 4.55 30.6 7.9
    endloop
  endfacet
  facet normal -0 0 1
    outer loop
      vertex 3.11396 31.6352 7.9
      vertex 4.63565 31.1408 7.9
      vertex 3.58979 32.5691 7.9
    endloop
  endfacet
  facet normal 0 0 1
    outer loop
      vertex 4.63565 31.1408 7.9
      vertex 3.11396 31.6352 7.9
      vertex 4.55 30.6 7.9
    endloop
  endfacet
  facet normal 0 0 1
    outer loop
      vertex 4.88422 29.5714 7.9
      vertex 3.58979 28.6309 7.9
      vertex 4.33092 27.8898 7.9
    endloop
  endfacet
  facet normal 0 0 1
    outer loop
      vertex 2.95 30.6 7.9
      vertex 4.55 30.6 7.9
      vertex 3.11396 31.6352 7.9
    endloop
  endfacet
  facet normal 0 0 1
    outer loop
      vertex 4.63565 30.0592 7.9
      vertex 3.11396 29.5648 7.9
      vertex 3.58979 28.6309 7.9
    endloop
  endfacet
  facet normal 0 0 1
    outer loop
      vertex 4.55 30.6 7.9
      vertex 2.95 30.6 7.9
      vertex 3.11396 29.5648 7.9
    endloop
  endfacet
  facet normal -0.840262 0.428135 0.332656
    outer loop
      vertex 3.58979 32.5691 7.9
      vertex 1.56725 34.0385 0.9
      vertex 3.11396 31.6352 7.9
    endloop
  endfacet
  facet normal -0.428133 0.840263 0.332656
    outer loop
      vertex 5.26479 33.786 7.9
      vertex 2.86146 35.3327 0.9
      vertex 4.33092 33.3102 7.9
    endloop
  endfacet
  facet normal -0.147526 0.931437 0.332657
    outer loop
      vertex 6.00855 35.7 2.87075
      vertex 4.64291 35.7 2.26512
      vertex 5.26479 33.786 7.9
    endloop
  endfacet
  facet normal 0.666835 0.666836 0.332656
    outer loop
      vertex 9.73854 35.3327 0.9
      vertex 9.01021 32.5691 7.9
      vertex 11.0327 34.0385 0.9
    endloop
  endfacet
  facet normal 0.666836 0.666835 0.332656
    outer loop
      vertex 9.01021 32.5691 7.9
      vertex 9.73854 35.3327 0.9
      vertex 8.26908 33.3102 7.9
    endloop
  endfacet
  facet normal 0.428133 0.840263 0.332656
    outer loop
      vertex 9.73854 35.3327 0.9
      vertex 7.33521 33.786 7.9
      vertex 8.26908 33.3102 7.9
    endloop
  endfacet
  facet normal -0.428135 -0.840262 0.332656
    outer loop
      vertex 4.33092 27.8898 7.9
      vertex 2.86146 25.8673 0.9
      vertex 5.26479 27.414 7.9
    endloop
  endfacet
  facet normal 0.840262 -0.428136 0.332656
    outer loop
      vertex 9.48604 29.5648 7.9
      vertex 9.01021 28.6309 7.9
      vertex 11.0327 27.1615 0.9
    endloop
  endfacet
  facet normal -0.987688 -0.156435 0
    outer loop
      vertex 8.05 30.6 0.9
      vertex 7.96435 31.1408 7.9
      vertex 7.96435 31.1408 0.9
    endloop
  endfacet
  facet normal -0.987688 -0.156435 0
    outer loop
      vertex 7.96435 31.1408 7.9
      vertex 8.05 30.6 0.9
      vertex 8.05 30.6 7.9
    endloop
  endfacet
  facet normal -0.453991 -0.891006 0
    outer loop
      vertex 6.84078 32.2643 0.9
      vertex 7.32862 32.0158 7.9
      vertex 6.84078 32.2643 7.9
    endloop
  endfacet
  facet normal -0.453991 -0.891006 -0
    outer loop
      vertex 7.32862 32.0158 7.9
      vertex 6.84078 32.2643 0.9
      vertex 7.32862 32.0158 0.9
    endloop
  endfacet
  facet normal 0.891006 -0.453991 0
    outer loop
      vertex 4.63565 31.1408 7.9
      vertex 4.88422 31.6286 0.9
      vertex 4.88422 31.6286 7.9
    endloop
  endfacet
  facet normal 0.891006 -0.453991 0
    outer loop
      vertex 4.88422 31.6286 0.9
      vertex 4.63565 31.1408 7.9
      vertex 4.63565 31.1408 0.9
    endloop
  endfacet
  facet normal 0.453991 0.891006 -0
    outer loop
      vertex 5.75922 28.9357 0.9
      vertex 5.27138 29.1842 7.9
      vertex 5.75922 28.9357 7.9
    endloop
  endfacet
  facet normal 0.453991 0.891006 0
    outer loop
      vertex 5.27138 29.1842 7.9
      vertex 5.75922 28.9357 0.9
      vertex 5.27138 29.1842 0.9
    endloop
  endfacet
  facet normal -0.707105 -0.707109 0
    outer loop
      vertex 7.32862 32.0158 0.9
      vertex 7.71578 31.6286 7.9
      vertex 7.32862 32.0158 7.9
    endloop
  endfacet
  facet normal -0.707105 -0.707109 -0
    outer loop
      vertex 7.71578 31.6286 7.9
      vertex 7.32862 32.0158 0.9
      vertex 7.71578 31.6286 0.9
    endloop
  endfacet
  facet normal -0.891006 -0.453991 0
    outer loop
      vertex 7.96435 31.1408 0.9
      vertex 7.71578 31.6286 7.9
      vertex 7.71578 31.6286 0.9
    endloop
  endfacet
  facet normal -0.891006 -0.453991 0
    outer loop
      vertex 7.71578 31.6286 7.9
      vertex 7.96435 31.1408 0.9
      vertex 7.96435 31.1408 7.9
    endloop
  endfacet
  facet normal -0.156435 -0.987688 0
    outer loop
      vertex 6.3 32.35 0.9
      vertex 6.84078 32.2643 7.9
      vertex 6.3 32.35 7.9
    endloop
  endfacet
  facet normal -0.156435 -0.987688 -0
    outer loop
      vertex 6.84078 32.2643 7.9
      vertex 6.3 32.35 0.9
      vertex 6.84078 32.2643 0.9
    endloop
  endfacet
  facet normal 0.156435 -0.987688 0
    outer loop
      vertex 5.75922 32.2643 0.9
      vertex 6.3 32.35 7.9
      vertex 5.75922 32.2643 7.9
    endloop
  endfacet
  facet normal 0.156435 -0.987688 0
    outer loop
      vertex 6.3 32.35 7.9
      vertex 5.75922 32.2643 0.9
      vertex 6.3 32.35 0.9
    endloop
  endfacet
  facet normal 0.707105 -0.707109 0
    outer loop
      vertex 4.88422 31.6286 0.9
      vertex 5.27138 32.0158 7.9
      vertex 4.88422 31.6286 7.9
    endloop
  endfacet
  facet normal 0.707105 -0.707109 0
    outer loop
      vertex 5.27138 32.0158 7.9
      vertex 4.88422 31.6286 0.9
      vertex 5.27138 32.0158 0.9
    endloop
  endfacet
  facet normal 0.453991 -0.891006 0
    outer loop
      vertex 5.27138 32.0158 0.9
      vertex 5.75922 32.2643 7.9
      vertex 5.27138 32.0158 7.9
    endloop
  endfacet
  facet normal 0.453991 -0.891006 0
    outer loop
      vertex 5.75922 32.2643 7.9
      vertex 5.27138 32.0158 0.9
      vertex 5.75922 32.2643 0.9
    endloop
  endfacet
  facet normal -0.707107 0.707107 0
    outer loop
      vertex 7.32862 29.1842 0.9
      vertex 7.71578 29.5714 7.9
      vertex 7.71578 29.5714 0.9
    endloop
  endfacet
  facet normal -0.707107 0.707107 0
    outer loop
      vertex 7.71578 29.5714 7.9
      vertex 7.32862 29.1842 0.9
      vertex 7.32862 29.1842 7.9
    endloop
  endfacet
  facet normal 0.987688 0.156435 0
    outer loop
      vertex 4.63565 30.0592 7.9
      vertex 4.55 30.6 0.9
      vertex 4.55 30.6 7.9
    endloop
  endfacet
  facet normal 0.987688 0.156435 0
    outer loop
      vertex 4.55 30.6 0.9
      vertex 4.63565 30.0592 7.9
      vertex 4.63565 30.0592 0.9
    endloop
  endfacet
  facet normal 0.707107 0.707107 0
    outer loop
      vertex 5.27138 29.1842 7.9
      vertex 4.88422 29.5714 0.9
      vertex 4.88422 29.5714 7.9
    endloop
  endfacet
  facet normal 0.707107 0.707107 0
    outer loop
      vertex 4.88422 29.5714 0.9
      vertex 5.27138 29.1842 7.9
      vertex 5.27138 29.1842 0.9
    endloop
  endfacet
  facet normal 0.891006 0.453991 0
    outer loop
      vertex 4.88422 29.5714 7.9
      vertex 4.63565 30.0592 0.9
      vertex 4.63565 30.0592 7.9
    endloop
  endfacet
  facet normal 0.891006 0.453991 0
    outer loop
      vertex 4.63565 30.0592 0.9
      vertex 4.88422 29.5714 7.9
      vertex 4.88422 29.5714 0.9
    endloop
  endfacet
  facet normal 0.987688 -0.156435 0
    outer loop
      vertex 4.55 30.6 7.9
      vertex 4.63565 31.1408 0.9
      vertex 4.63565 31.1408 7.9
    endloop
  endfacet
  facet normal 0.987688 -0.156435 0
    outer loop
      vertex 4.63565 31.1408 0.9
      vertex 4.55 30.6 7.9
      vertex 4.55 30.6 0.9
    endloop
  endfacet
  facet normal -0.891006 0.453991 0
    outer loop
      vertex 7.71578 29.5714 0.9
      vertex 7.96435 30.0592 7.9
      vertex 7.96435 30.0592 0.9
    endloop
  endfacet
  facet normal -0.891006 0.453991 0
    outer loop
      vertex 7.96435 30.0592 7.9
      vertex 7.71578 29.5714 0.9
      vertex 7.71578 29.5714 7.9
    endloop
  endfacet
  facet normal -0.156435 0.987688 0
    outer loop
      vertex 6.84078 28.9357 0.9
      vertex 6.3 28.85 7.9
      vertex 6.84078 28.9357 7.9
    endloop
  endfacet
  facet normal -0.156435 0.987688 0
    outer loop
      vertex 6.3 28.85 7.9
      vertex 6.84078 28.9357 0.9
      vertex 6.3 28.85 0.9
    endloop
  endfacet
  facet normal -0.453991 0.891006 0
    outer loop
      vertex 7.32862 29.1842 0.9
      vertex 6.84078 28.9357 7.9
      vertex 7.32862 29.1842 7.9
    endloop
  endfacet
  facet normal -0.453991 0.891006 0
    outer loop
      vertex 6.84078 28.9357 7.9
      vertex 7.32862 29.1842 0.9
      vertex 6.84078 28.9357 0.9
    endloop
  endfacet
  facet normal 0.156435 0.987688 -0
    outer loop
      vertex 6.3 28.85 0.9
      vertex 5.75922 28.9357 7.9
      vertex 6.3 28.85 7.9
    endloop
  endfacet
  facet normal 0.156435 0.987688 0
    outer loop
      vertex 5.75922 28.9357 7.9
      vertex 6.3 28.85 0.9
      vertex 5.75922 28.9357 0.9
    endloop
  endfacet
  facet normal -0.987688 0.156435 0
    outer loop
      vertex 7.96435 30.0592 0.9
      vertex 8.05 30.6 7.9
      vertex 8.05 30.6 0.9
    endloop
  endfacet
  facet normal -0.987688 0.156435 0
    outer loop
      vertex 8.05 30.6 7.9
      vertex 7.96435 30.0592 0.9
      vertex 7.96435 30.0592 7.9
    endloop
  endfacet
  facet normal 0.931437 0.147528 0.332656
    outer loop
      vertex 53.7 6.3 3
      vertex 51.786 7.33521 7.9
      vertex 51.95 6.3 7.9
    endloop
  endfacet
  facet normal 0.931437 0.147525 0.332657
    outer loop
      vertex 51.786 7.33521 7.9
      vertex 53.7 6.3 3
      vertex 53.7 6.59145 2.87075
    endloop
  endfacet
  facet normal 0.931437 0.147526 0.332657
    outer loop
      vertex 53.7 7.95709 2.26512
      vertex 51.786 7.33521 7.9
      vertex 53.7 6.59145 2.87075
    endloop
  endfacet
  facet normal -0.666835 -0.666836 0.332656
    outer loop
      vertex 43.8673 2.86146 0.9
      vertex 46.6309 3.58979 7.9
      vertex 45.8898 4.33092 7.9
    endloop
  endfacet
  facet normal -0.666836 -0.666835 0.332656
    outer loop
      vertex 46.6309 3.58979 7.9
      vertex 43.8673 2.86146 0.9
      vertex 45.1615 1.56725 0.9
    endloop
  endfacet
  facet normal 0.666835 -0.666836 0.332656
    outer loop
      vertex 50.5691 3.58979 7.9
      vertex 53.3327 2.86146 0.9
      vertex 51.3102 4.33092 7.9
    endloop
  endfacet
  facet normal 0.666836 -0.666835 0.332656
    outer loop
      vertex 53.3327 2.86146 0.9
      vertex 50.5691 3.58979 7.9
      vertex 52.0385 1.56725 0.9
    endloop
  endfacet
  facet normal 0.428135 0.840262 0.332656
    outer loop
      vertex 50.4077 11.8637 0.9
      vertex 49.6352 9.48604 7.9
      vertex 52.0385 11.0327 0.9
    endloop
  endfacet
  facet normal -0.931438 0.147524 0.332656
    outer loop
      vertex 45.414 7.33521 7.9
      vertex 42.75 6.3 0.9
      vertex 45.25 6.3 7.9
    endloop
  endfacet
  facet normal -0.840262 -0.428135 0.332656
    outer loop
      vertex 45.414 5.26479 7.9
      vertex 43.0363 4.49225 0.9
      vertex 43.8673 2.86146 0.9
    endloop
  endfacet
  facet normal 0 0 -1
    outer loop
      vertex 50.0158 5.27138 0.9
      vertex 53.7 3.58223 0.9
      vertex 53.3327 2.86146 0.9
    endloop
  endfacet
  facet normal 0 0 -1
    outer loop
      vertex 53.7 3.58223 0.9
      vertex 50.35 6.3 0.9
      vertex 53.7 9.01777 0.9
    endloop
  endfacet
  facet normal 0 0 -1
    outer loop
      vertex 50.0158 5.27138 0.9
      vertex 53.3327 2.86146 0.9
      vertex 52.0385 1.56725 0.9
    endloop
  endfacet
  facet normal 0 0 -1
    outer loop
      vertex 50.2643 6.84078 0.9
      vertex 53.7 9.01777 0.9
      vertex 50.35 6.3 0.9
    endloop
  endfacet
  facet normal 0 0 -1
    outer loop
      vertex 49.6286 4.88422 0.9
      vertex 52.0385 1.56725 0.9
      vertex 51.3178 1.2 0.9
    endloop
  endfacet
  facet normal 0 0 -1
    outer loop
      vertex 50.0158 7.32862 0.9
      vertex 53.7 9.01777 0.9
      vertex 50.2643 6.84078 0.9
    endloop
  endfacet
  facet normal -0 0 -1
    outer loop
      vertex 53.7 9.01777 0.9
      vertex 50.0158 7.32862 0.9
      vertex 53.3327 9.73854 0.9
    endloop
  endfacet
  facet normal 0 0 -1
    outer loop
      vertex 53.7 3.58223 0.9
      vertex 50.2643 5.75922 0.9
      vertex 50.35 6.3 0.9
    endloop
  endfacet
  facet normal 0 0 -1
    outer loop
      vertex 53.7 3.58223 0.9
      vertex 50.0158 5.27138 0.9
      vertex 50.2643 5.75922 0.9
    endloop
  endfacet
  facet normal 0 0 -1
    outer loop
      vertex 52.0385 1.56725 0.9
      vertex 49.6286 4.88422 0.9
      vertex 50.0158 5.27138 0.9
    endloop
  endfacet
  facet normal 0 0 -1
    outer loop
      vertex 51.3178 1.2 0.9
      vertex 49.1408 4.63565 0.9
      vertex 49.6286 4.88422 0.9
    endloop
  endfacet
  facet normal 0 0 -1
    outer loop
      vertex 51.3178 1.2 0.9
      vertex 48.6 4.55 0.9
      vertex 49.1408 4.63565 0.9
    endloop
  endfacet
  facet normal 0 0 -1
    outer loop
      vertex 45.8822 1.2 0.9
      vertex 48.6 4.55 0.9
      vertex 51.3178 1.2 0.9
    endloop
  endfacet
  facet normal -0 0 -1
    outer loop
      vertex 48.6 4.55 0.9
      vertex 45.8822 1.2 0.9
      vertex 48.0592 4.63565 0.9
    endloop
  endfacet
  facet normal -0 0 -1
    outer loop
      vertex 48.0592 4.63565 0.9
      vertex 45.8822 1.2 0.9
      vertex 47.5714 4.88422 0.9
    endloop
  endfacet
  facet normal 0 0 -1
    outer loop
      vertex 45.1615 1.56725 0.9
      vertex 47.5714 4.88422 0.9
      vertex 45.8822 1.2 0.9
    endloop
  endfacet
  facet normal -0 0 -1
    outer loop
      vertex 47.5714 4.88422 0.9
      vertex 45.1615 1.56725 0.9
      vertex 47.1842 5.27138 0.9
    endloop
  endfacet
  facet normal 0 0 -1
    outer loop
      vertex 43.8673 2.86146 0.9
      vertex 47.1842 5.27138 0.9
      vertex 45.1615 1.56725 0.9
    endloop
  endfacet
  facet normal -0 0 -1
    outer loop
      vertex 47.1842 5.27138 0.9
      vertex 43.8673 2.86146 0.9
      vertex 46.9356 5.75922 0.9
    endloop
  endfacet
  facet normal 0 0 -1
    outer loop
      vertex 43.0363 4.49225 0.9
      vertex 46.9356 5.75922 0.9
      vertex 43.8673 2.86146 0.9
    endloop
  endfacet
  facet normal 0 0 -1
    outer loop
      vertex 46.85 6.3 0.9
      vertex 45.1615 11.0327 0.9
      vertex 46.7923 11.8637 0.9
    endloop
  endfacet
  facet normal -0 0 -1
    outer loop
      vertex 46.9356 5.75922 0.9
      vertex 43.0363 4.49225 0.9
      vertex 46.85 6.3 0.9
    endloop
  endfacet
  facet normal 0 0 -1
    outer loop
      vertex 46.85 6.3 0.9
      vertex 43.8673 9.73854 0.9
      vertex 45.1615 11.0327 0.9
    endloop
  endfacet
  facet normal 0 0 -1
    outer loop
      vertex 42.75 6.3 0.9
      vertex 46.85 6.3 0.9
      vertex 43.0363 4.49225 0.9
    endloop
  endfacet
  facet normal 0 0 -1
    outer loop
      vertex 46.85 6.3 0.9
      vertex 43.0363 8.10775 0.9
      vertex 43.8673 9.73854 0.9
    endloop
  endfacet
  facet normal 0 0 -1
    outer loop
      vertex 46.85 6.3 0.9
      vertex 42.75 6.3 0.9
      vertex 43.0363 8.10775 0.9
    endloop
  endfacet
  facet normal -0 0 -1
    outer loop
      vertex 53.3327 9.73854 0.9
      vertex 50.0158 7.32862 0.9
      vertex 52.0385 11.0327 0.9
    endloop
  endfacet
  facet normal 0 0 -1
    outer loop
      vertex 49.6286 7.71578 0.9
      vertex 52.0385 11.0327 0.9
      vertex 50.0158 7.32862 0.9
    endloop
  endfacet
  facet normal -0 0 -1
    outer loop
      vertex 52.0385 11.0327 0.9
      vertex 49.6286 7.71578 0.9
      vertex 50.4077 11.8637 0.9
    endloop
  endfacet
  facet normal 0 0 -1
    outer loop
      vertex 49.1408 7.96435 0.9
      vertex 50.4077 11.8637 0.9
      vertex 49.6286 7.71578 0.9
    endloop
  endfacet
  facet normal 0 0 -1
    outer loop
      vertex 48.6 8.05 0.9
      vertex 50.4077 11.8637 0.9
      vertex 49.1408 7.96435 0.9
    endloop
  endfacet
  facet normal 0 0 -1
    outer loop
      vertex 48.6 8.05 0.9
      vertex 48.6 12.15 0.9
      vertex 50.4077 11.8637 0.9
    endloop
  endfacet
  facet normal 0 0 -1
    outer loop
      vertex 48.0592 7.96435 0.9
      vertex 48.6 12.15 0.9
      vertex 48.6 8.05 0.9
    endloop
  endfacet
  facet normal 0 0 -1
    outer loop
      vertex 46.7923 11.8637 0.9
      vertex 48.0592 7.96435 0.9
      vertex 47.5714 7.71578 0.9
    endloop
  endfacet
  facet normal 0 0 -1
    outer loop
      vertex 46.7923 11.8637 0.9
      vertex 47.5714 7.71578 0.9
      vertex 47.1842 7.32862 0.9
    endloop
  endfacet
  facet normal 0 0 -1
    outer loop
      vertex 46.7923 11.8637 0.9
      vertex 47.1842 7.32862 0.9
      vertex 46.9356 6.84078 0.9
    endloop
  endfacet
  facet normal 0 0 -1
    outer loop
      vertex 48.0592 7.96435 0.9
      vertex 46.7923 11.8637 0.9
      vertex 48.6 12.15 0.9
    endloop
  endfacet
  facet normal 0 0 -1
    outer loop
      vertex 46.7923 11.8637 0.9
      vertex 46.9356 6.84078 0.9
      vertex 46.85 6.3 0.9
    endloop
  endfacet
  facet normal 0.428135 -0.840262 0.332656
    outer loop
      vertex 52.0385 1.56725 0.9
      vertex 50.2571 1.2 2.26512
      vertex 51.3178 1.2 0.9
    endloop
  endfacet
  facet normal 0.428135 -0.840262 0.332656
    outer loop
      vertex 50.2571 1.2 2.26512
      vertex 52.0385 1.56725 0.9
      vertex 49.6352 3.11396 7.9
    endloop
  endfacet
  facet normal 0.840262 -0.428135 0.332657
    outer loop
      vertex 53.3327 2.86146 0.9
      vertex 53.7 4.64291 2.26512
      vertex 51.786 5.26479 7.9
    endloop
  endfacet
  facet normal 0.840261 -0.428136 0.332657
    outer loop
      vertex 53.7 4.64291 2.26512
      vertex 53.3327 2.86146 0.9
      vertex 53.7 3.58223 0.9
    endloop
  endfacet
  facet normal 0.840261 0.428136 0.332657
    outer loop
      vertex 53.3327 9.73854 0.9
      vertex 53.7 7.95709 2.26512
      vertex 53.7 9.01777 0.9
    endloop
  endfacet
  facet normal 0.840262 0.428135 0.332656
    outer loop
      vertex 53.7 7.95709 2.26512
      vertex 53.3327 9.73854 0.9
      vertex 51.786 7.33521 7.9
    endloop
  endfacet
  facet normal -0.666836 0.666835 0.332656
    outer loop
      vertex 43.8673 9.73854 0.9
      vertex 46.6309 9.01021 7.9
      vertex 45.1615 11.0327 0.9
    endloop
  endfacet
  facet normal -0.666835 0.666836 0.332656
    outer loop
      vertex 46.6309 9.01021 7.9
      vertex 43.8673 9.73854 0.9
      vertex 45.8898 8.26908 7.9
    endloop
  endfacet
  facet normal 0.147525 0.931438 0.332656
    outer loop
      vertex 48.6 12.15 0.9
      vertex 48.6 9.65 7.9
      vertex 49.6352 9.48604 7.9
    endloop
  endfacet
  facet normal -0.840261 -0.428136 0.332656
    outer loop
      vertex 45.414 5.26479 7.9
      vertex 43.8673 2.86146 0.9
      vertex 45.8898 4.33092 7.9
    endloop
  endfacet
  facet normal 0.428136 -0.840262 0.332656
    outer loop
      vertex 50.5691 3.58979 7.9
      vertex 49.6352 3.11396 7.9
      vertex 52.0385 1.56725 0.9
    endloop
  endfacet
  facet normal 0.931437 -0.147526 0.332657
    outer loop
      vertex 53.7 6.00855 2.87075
      vertex 51.786 5.26479 7.9
      vertex 53.7 4.64291 2.26512
    endloop
  endfacet
  facet normal -0.840262 0.428135 0.332656
    outer loop
      vertex 43.8673 9.73854 0.9
      vertex 43.0363 8.10775 0.9
      vertex 45.414 7.33521 7.9
    endloop
  endfacet
  facet normal -0.931438 0.147525 0.332656
    outer loop
      vertex 43.0363 8.10775 0.9
      vertex 42.75 6.3 0.9
      vertex 45.414 7.33521 7.9
    endloop
  endfacet
  facet normal -0.428135 0.840262 0.332656
    outer loop
      vertex 46.7923 11.8637 0.9
      vertex 45.1615 11.0327 0.9
      vertex 47.5648 9.48604 7.9
    endloop
  endfacet
  facet normal 0.840263 0.428133 0.332656
    outer loop
      vertex 53.3327 9.73854 0.9
      vertex 51.3102 8.26908 7.9
      vertex 51.786 7.33521 7.9
    endloop
  endfacet
  facet normal 0.147525 0.931438 0.332656
    outer loop
      vertex 50.4077 11.8637 0.9
      vertex 48.6 12.15 0.9
      vertex 49.6352 9.48604 7.9
    endloop
  endfacet
  facet normal -0.147525 0.931438 0.332656
    outer loop
      vertex 48.6 12.15 0.9
      vertex 47.5648 9.48604 7.9
      vertex 48.6 9.65 7.9
    endloop
  endfacet
  facet normal -0.931438 -0.147524 0.332656
    outer loop
      vertex 45.25 6.3 7.9
      vertex 42.75 6.3 0.9
      vertex 45.414 5.26479 7.9
    endloop
  endfacet
  facet normal -0.931438 -0.147525 0.332656
    outer loop
      vertex 45.414 5.26479 7.9
      vertex 42.75 6.3 0.9
      vertex 43.0363 4.49225 0.9
    endloop
  endfacet
  facet normal -0.428135 -0.840262 0.332656
    outer loop
      vertex 45.1615 1.56725 0.9
      vertex 46.9429 1.2 2.26512
      vertex 47.5648 3.11396 7.9
    endloop
  endfacet
  facet normal -0.428135 -0.840262 0.332656
    outer loop
      vertex 46.9429 1.2 2.26512
      vertex 45.1615 1.56725 0.9
      vertex 45.8822 1.2 0.9
    endloop
  endfacet
  facet normal -0.147525 -0.931438 0.332656
    outer loop
      vertex 47.5648 3.11396 7.9
      vertex 48.6 1.2 3
      vertex 48.6 2.95 7.9
    endloop
  endfacet
  facet normal -0.147525 -0.931438 0.332656
    outer loop
      vertex 48.6 1.2 3
      vertex 47.5648 3.11396 7.9
      vertex 48.3086 1.2 2.87075
    endloop
  endfacet
  facet normal -0.147526 -0.931438 0.332656
    outer loop
      vertex 47.5648 3.11396 7.9
      vertex 46.9429 1.2 2.26512
      vertex 48.3086 1.2 2.87075
    endloop
  endfacet
  facet normal 0.147525 -0.931438 0.332656
    outer loop
      vertex 48.6 1.2 3
      vertex 49.6352 3.11396 7.9
      vertex 48.6 2.95 7.9
    endloop
  endfacet
  facet normal 0.147524 -0.931438 0.332657
    outer loop
      vertex 49.6352 3.11396 7.9
      vertex 48.6 1.2 3
      vertex 48.8914 1.2 2.87075
    endloop
  endfacet
  facet normal 0.147526 -0.931438 0.332656
    outer loop
      vertex 49.6352 3.11396 7.9
      vertex 48.8914 1.2 2.87075
      vertex 50.2571 1.2 2.26512
    endloop
  endfacet
  facet normal 0.931437 -0.147528 0.332656
    outer loop
      vertex 51.786 5.26479 7.9
      vertex 53.7 6.3 3
      vertex 51.95 6.3 7.9
    endloop
  endfacet
  facet normal 0.931438 -0.147525 0.332657
    outer loop
      vertex 53.7 6.3 3
      vertex 51.786 5.26479 7.9
      vertex 53.7 6.00855 2.87075
    endloop
  endfacet
  facet normal 0 0 1
    outer loop
      vertex 50.35 6.3 7.9
      vertex 51.95 6.3 7.9
      vertex 51.786 7.33521 7.9
    endloop
  endfacet
  facet normal 0 0 1
    outer loop
      vertex 50.2643 6.84078 7.9
      vertex 51.786 7.33521 7.9
      vertex 51.3102 8.26908 7.9
    endloop
  endfacet
  facet normal 0 0 1
    outer loop
      vertex 51.95 6.3 7.9
      vertex 50.35 6.3 7.9
      vertex 51.786 5.26479 7.9
    endloop
  endfacet
  facet normal 0 0 1
    outer loop
      vertex 50.0158 7.32862 7.9
      vertex 51.3102 8.26908 7.9
      vertex 50.5691 9.01021 7.9
    endloop
  endfacet
  facet normal -0 0 1
    outer loop
      vertex 50.2643 5.75922 7.9
      vertex 51.786 5.26479 7.9
      vertex 50.35 6.3 7.9
    endloop
  endfacet
  facet normal 0 0 1
    outer loop
      vertex 51.786 5.26479 7.9
      vertex 50.2643 5.75922 7.9
      vertex 51.3102 4.33092 7.9
    endloop
  endfacet
  facet normal 0 0 1
    outer loop
      vertex 51.786 7.33521 7.9
      vertex 50.2643 6.84078 7.9
      vertex 50.35 6.3 7.9
    endloop
  endfacet
  facet normal 0 0 1
    outer loop
      vertex 51.3102 8.26908 7.9
      vertex 50.0158 7.32862 7.9
      vertex 50.2643 6.84078 7.9
    endloop
  endfacet
  facet normal 0 0 1
    outer loop
      vertex 49.6286 7.71578 7.9
      vertex 50.5691 9.01021 7.9
      vertex 49.6352 9.48604 7.9
    endloop
  endfacet
  facet normal 0 0 1
    outer loop
      vertex 50.5691 9.01021 7.9
      vertex 49.6286 7.71578 7.9
      vertex 50.0158 7.32862 7.9
    endloop
  endfacet
  facet normal 0 0 1
    outer loop
      vertex 49.6352 9.48604 7.9
      vertex 49.1408 7.96435 7.9
      vertex 49.6286 7.71578 7.9
    endloop
  endfacet
  facet normal 0 0 1
    outer loop
      vertex 48.6 9.65 7.9
      vertex 49.1408 7.96435 7.9
      vertex 49.6352 9.48604 7.9
    endloop
  endfacet
  facet normal 0 0 1
    outer loop
      vertex 48.6 9.65 7.9
      vertex 48.6 8.05 7.9
      vertex 49.1408 7.96435 7.9
    endloop
  endfacet
  facet normal 0 0 1
    outer loop
      vertex 48.6 9.65 7.9
      vertex 48.0592 7.96435 7.9
      vertex 48.6 8.05 7.9
    endloop
  endfacet
  facet normal -0 0 1
    outer loop
      vertex 47.5648 9.48604 7.9
      vertex 48.0592 7.96435 7.9
      vertex 48.6 9.65 7.9
    endloop
  endfacet
  facet normal 0 0 1
    outer loop
      vertex 48.0592 7.96435 7.9
      vertex 47.5648 9.48604 7.9
      vertex 47.5714 7.71578 7.9
    endloop
  endfacet
  facet normal -0 0 1
    outer loop
      vertex 46.6309 9.01021 7.9
      vertex 47.5714 7.71578 7.9
      vertex 47.5648 9.48604 7.9
    endloop
  endfacet
  facet normal 0 0 1
    outer loop
      vertex 47.5714 7.71578 7.9
      vertex 46.6309 9.01021 7.9
      vertex 47.1842 7.32862 7.9
    endloop
  endfacet
  facet normal 0 0 1
    outer loop
      vertex 47.1842 7.32862 7.9
      vertex 45.8898 8.26908 7.9
      vertex 46.9356 6.84078 7.9
    endloop
  endfacet
  facet normal -0 0 1
    outer loop
      vertex 45.8898 8.26908 7.9
      vertex 47.1842 7.32862 7.9
      vertex 46.6309 9.01021 7.9
    endloop
  endfacet
  facet normal -0 0 1
    outer loop
      vertex 50.0158 5.27138 7.9
      vertex 51.3102 4.33092 7.9
      vertex 50.2643 5.75922 7.9
    endloop
  endfacet
  facet normal 0 0 1
    outer loop
      vertex 51.3102 4.33092 7.9
      vertex 50.0158 5.27138 7.9
      vertex 50.5691 3.58979 7.9
    endloop
  endfacet
  facet normal -0 0 1
    outer loop
      vertex 49.6286 4.88422 7.9
      vertex 50.5691 3.58979 7.9
      vertex 50.0158 5.27138 7.9
    endloop
  endfacet
  facet normal 0 0 1
    outer loop
      vertex 50.5691 3.58979 7.9
      vertex 49.6286 4.88422 7.9
      vertex 49.6352 3.11396 7.9
    endloop
  endfacet
  facet normal -0 0 1
    outer loop
      vertex 49.1408 4.63565 7.9
      vertex 49.6352 3.11396 7.9
      vertex 49.6286 4.88422 7.9
    endloop
  endfacet
  facet normal -0 0 1
    outer loop
      vertex 48.6 4.55 7.9
      vertex 49.6352 3.11396 7.9
      vertex 49.1408 4.63565 7.9
    endloop
  endfacet
  facet normal 0 0 1
    outer loop
      vertex 48.6 4.55 7.9
      vertex 48.6 2.95 7.9
      vertex 49.6352 3.11396 7.9
    endloop
  endfacet
  facet normal 0 0 1
    outer loop
      vertex 48.0592 4.63565 7.9
      vertex 48.6 2.95 7.9
      vertex 48.6 4.55 7.9
    endloop
  endfacet
  facet normal 0 0 1
    outer loop
      vertex 47.5648 3.11396 7.9
      vertex 48.0592 4.63565 7.9
      vertex 47.5714 4.88422 7.9
    endloop
  endfacet
  facet normal 0 0 1
    outer loop
      vertex 48.0592 4.63565 7.9
      vertex 47.5648 3.11396 7.9
      vertex 48.6 2.95 7.9
    endloop
  endfacet
  facet normal 0 0 1
    outer loop
      vertex 46.6309 3.58979 7.9
      vertex 47.5714 4.88422 7.9
      vertex 47.1842 5.27138 7.9
    endloop
  endfacet
  facet normal 0 0 1
    outer loop
      vertex 45.8898 4.33092 7.9
      vertex 47.1842 5.27138 7.9
      vertex 46.9356 5.75922 7.9
    endloop
  endfacet
  facet normal 0 0 1
    outer loop
      vertex 47.5714 4.88422 7.9
      vertex 46.6309 3.58979 7.9
      vertex 47.5648 3.11396 7.9
    endloop
  endfacet
  facet normal 0 0 1
    outer loop
      vertex 45.414 5.26479 7.9
      vertex 46.9356 5.75922 7.9
      vertex 46.85 6.3 7.9
    endloop
  endfacet
  facet normal -0 0 1
    outer loop
      vertex 45.414 7.33521 7.9
      vertex 46.9356 6.84078 7.9
      vertex 45.8898 8.26908 7.9
    endloop
  endfacet
  facet normal 0 0 1
    outer loop
      vertex 46.9356 6.84078 7.9
      vertex 45.414 7.33521 7.9
      vertex 46.85 6.3 7.9
    endloop
  endfacet
  facet normal 0 0 1
    outer loop
      vertex 47.1842 5.27138 7.9
      vertex 45.8898 4.33092 7.9
      vertex 46.6309 3.58979 7.9
    endloop
  endfacet
  facet normal 0 0 1
    outer loop
      vertex 45.25 6.3 7.9
      vertex 46.85 6.3 7.9
      vertex 45.414 7.33521 7.9
    endloop
  endfacet
  facet normal 0 0 1
    outer loop
      vertex 46.9356 5.75922 7.9
      vertex 45.414 5.26479 7.9
      vertex 45.8898 4.33092 7.9
    endloop
  endfacet
  facet normal 0 0 1
    outer loop
      vertex 46.85 6.3 7.9
      vertex 45.25 6.3 7.9
      vertex 45.414 5.26479 7.9
    endloop
  endfacet
  facet normal -0.840261 0.428136 0.332656
    outer loop
      vertex 45.8898 8.26908 7.9
      vertex 43.8673 9.73854 0.9
      vertex 45.414 7.33521 7.9
    endloop
  endfacet
  facet normal -0.428136 0.840262 0.332656
    outer loop
      vertex 47.5648 9.48604 7.9
      vertex 45.1615 11.0327 0.9
      vertex 46.6309 9.01021 7.9
    endloop
  endfacet
  facet normal -0.147526 0.931438 0.332656
    outer loop
      vertex 48.6 12.15 0.9
      vertex 46.7923 11.8637 0.9
      vertex 47.5648 9.48604 7.9
    endloop
  endfacet
  facet normal 0.666836 0.666835 0.332656
    outer loop
      vertex 50.5691 9.01021 7.9
      vertex 53.3327 9.73854 0.9
      vertex 52.0385 11.0327 0.9
    endloop
  endfacet
  facet normal 0.666835 0.666836 0.332656
    outer loop
      vertex 53.3327 9.73854 0.9
      vertex 50.5691 9.01021 7.9
      vertex 51.3102 8.26908 7.9
    endloop
  endfacet
  facet normal 0.428136 0.840262 0.332656
    outer loop
      vertex 52.0385 11.0327 0.9
      vertex 49.6352 9.48604 7.9
      vertex 50.5691 9.01021 7.9
    endloop
  endfacet
  facet normal -0.428136 -0.840262 0.332656
    outer loop
      vertex 46.6309 3.58979 7.9
      vertex 45.1615 1.56725 0.9
      vertex 47.5648 3.11396 7.9
    endloop
  endfacet
  facet normal 0.840263 -0.428133 0.332656
    outer loop
      vertex 51.786 5.26479 7.9
      vertex 51.3102 4.33092 7.9
      vertex 53.3327 2.86146 0.9
    endloop
  endfacet
  facet normal -0.987688 -0.156435 0
    outer loop
      vertex 50.35 6.3 0.9
      vertex 50.2643 6.84078 7.9
      vertex 50.2643 6.84078 0.9
    endloop
  endfacet
  facet normal -0.987688 -0.156435 0
    outer loop
      vertex 50.2643 6.84078 7.9
      vertex 50.35 6.3 0.9
      vertex 50.35 6.3 7.9
    endloop
  endfacet
  facet normal -0.45399 -0.891007 0
    outer loop
      vertex 49.1408 7.96435 0.9
      vertex 49.6286 7.71578 7.9
      vertex 49.1408 7.96435 7.9
    endloop
  endfacet
  facet normal -0.45399 -0.891007 -0
    outer loop
      vertex 49.6286 7.71578 7.9
      vertex 49.1408 7.96435 0.9
      vertex 49.6286 7.71578 0.9
    endloop
  endfacet
  facet normal 0.891006 -0.453991 0
    outer loop
      vertex 46.9356 6.84078 7.9
      vertex 47.1842 7.32862 0.9
      vertex 47.1842 7.32862 7.9
    endloop
  endfacet
  facet normal 0.891006 -0.453991 0
    outer loop
      vertex 47.1842 7.32862 0.9
      vertex 46.9356 6.84078 7.9
      vertex 46.9356 6.84078 0.9
    endloop
  endfacet
  facet normal 0.453992 0.891006 -0
    outer loop
      vertex 48.0592 4.63565 0.9
      vertex 47.5714 4.88422 7.9
      vertex 48.0592 4.63565 7.9
    endloop
  endfacet
  facet normal 0.453992 0.891006 0
    outer loop
      vertex 47.5714 4.88422 7.9
      vertex 48.0592 4.63565 0.9
      vertex 47.5714 4.88422 0.9
    endloop
  endfacet
  facet normal -0.707109 -0.707105 0
    outer loop
      vertex 50.0158 7.32862 0.9
      vertex 49.6286 7.71578 7.9
      vertex 49.6286 7.71578 0.9
    endloop
  endfacet
  facet normal -0.707109 -0.707105 0
    outer loop
      vertex 49.6286 7.71578 7.9
      vertex 50.0158 7.32862 0.9
      vertex 50.0158 7.32862 7.9
    endloop
  endfacet
  facet normal -0.891006 -0.453991 0
    outer loop
      vertex 50.2643 6.84078 0.9
      vertex 50.0158 7.32862 7.9
      vertex 50.0158 7.32862 0.9
    endloop
  endfacet
  facet normal -0.891006 -0.453991 0
    outer loop
      vertex 50.0158 7.32862 7.9
      vertex 50.2643 6.84078 0.9
      vertex 50.2643 6.84078 7.9
    endloop
  endfacet
  facet normal -0.156435 -0.987688 0
    outer loop
      vertex 48.6 8.05 0.9
      vertex 49.1408 7.96435 7.9
      vertex 48.6 8.05 7.9
    endloop
  endfacet
  facet normal -0.156435 -0.987688 -0
    outer loop
      vertex 49.1408 7.96435 7.9
      vertex 48.6 8.05 0.9
      vertex 49.1408 7.96435 0.9
    endloop
  endfacet
  facet normal 0.156435 -0.987688 0
    outer loop
      vertex 48.0592 7.96435 0.9
      vertex 48.6 8.05 7.9
      vertex 48.0592 7.96435 7.9
    endloop
  endfacet
  facet normal 0.156435 -0.987688 0
    outer loop
      vertex 48.6 8.05 7.9
      vertex 48.0592 7.96435 0.9
      vertex 48.6 8.05 0.9
    endloop
  endfacet
  facet normal 0.707105 -0.707109 0
    outer loop
      vertex 47.1842 7.32862 0.9
      vertex 47.5714 7.71578 7.9
      vertex 47.1842 7.32862 7.9
    endloop
  endfacet
  facet normal 0.707105 -0.707109 0
    outer loop
      vertex 47.5714 7.71578 7.9
      vertex 47.1842 7.32862 0.9
      vertex 47.5714 7.71578 0.9
    endloop
  endfacet
  facet normal 0.453992 -0.891006 0
    outer loop
      vertex 47.5714 7.71578 0.9
      vertex 48.0592 7.96435 7.9
      vertex 47.5714 7.71578 7.9
    endloop
  endfacet
  facet normal 0.453992 -0.891006 0
    outer loop
      vertex 48.0592 7.96435 7.9
      vertex 47.5714 7.71578 0.9
      vertex 48.0592 7.96435 0.9
    endloop
  endfacet
  facet normal -0.707109 0.707105 0
    outer loop
      vertex 49.6286 4.88422 0.9
      vertex 50.0158 5.27138 7.9
      vertex 50.0158 5.27138 0.9
    endloop
  endfacet
  facet normal -0.707109 0.707105 0
    outer loop
      vertex 50.0158 5.27138 7.9
      vertex 49.6286 4.88422 0.9
      vertex 49.6286 4.88422 7.9
    endloop
  endfacet
  facet normal 0.987688 0.156435 0
    outer loop
      vertex 46.9356 5.75922 7.9
      vertex 46.85 6.3 0.9
      vertex 46.85 6.3 7.9
    endloop
  endfacet
  facet normal 0.987688 0.156435 0
    outer loop
      vertex 46.85 6.3 0.9
      vertex 46.9356 5.75922 7.9
      vertex 46.9356 5.75922 0.9
    endloop
  endfacet
  facet normal 0.707105 0.707109 -0
    outer loop
      vertex 47.5714 4.88422 0.9
      vertex 47.1842 5.27138 7.9
      vertex 47.5714 4.88422 7.9
    endloop
  endfacet
  facet normal 0.707105 0.707109 0
    outer loop
      vertex 47.1842 5.27138 7.9
      vertex 47.5714 4.88422 0.9
      vertex 47.1842 5.27138 0.9
    endloop
  endfacet
  facet normal 0.891006 0.453991 0
    outer loop
      vertex 47.1842 5.27138 7.9
      vertex 46.9356 5.75922 0.9
      vertex 46.9356 5.75922 7.9
    endloop
  endfacet
  facet normal 0.891006 0.453991 0
    outer loop
      vertex 46.9356 5.75922 0.9
      vertex 47.1842 5.27138 7.9
      vertex 47.1842 5.27138 0.9
    endloop
  endfacet
  facet normal 0.987688 -0.156435 0
    outer loop
      vertex 46.85 6.3 7.9
      vertex 46.9356 6.84078 0.9
      vertex 46.9356 6.84078 7.9
    endloop
  endfacet
  facet normal 0.987688 -0.156435 0
    outer loop
      vertex 46.9356 6.84078 0.9
      vertex 46.85 6.3 7.9
      vertex 46.85 6.3 0.9
    endloop
  endfacet
  facet normal -0.891006 0.453991 0
    outer loop
      vertex 50.0158 5.27138 0.9
      vertex 50.2643 5.75922 7.9
      vertex 50.2643 5.75922 0.9
    endloop
  endfacet
  facet normal -0.891006 0.453991 0
    outer loop
      vertex 50.2643 5.75922 7.9
      vertex 50.0158 5.27138 0.9
      vertex 50.0158 5.27138 7.9
    endloop
  endfacet
  facet normal -0.156435 0.987688 0
    outer loop
      vertex 49.1408 4.63565 0.9
      vertex 48.6 4.55 7.9
      vertex 49.1408 4.63565 7.9
    endloop
  endfacet
  facet normal -0.156435 0.987688 0
    outer loop
      vertex 48.6 4.55 7.9
      vertex 49.1408 4.63565 0.9
      vertex 48.6 4.55 0.9
    endloop
  endfacet
  facet normal -0.45399 0.891007 0
    outer loop
      vertex 49.6286 4.88422 0.9
      vertex 49.1408 4.63565 7.9
      vertex 49.6286 4.88422 7.9
    endloop
  endfacet
  facet normal -0.45399 0.891007 0
    outer loop
      vertex 49.1408 4.63565 7.9
      vertex 49.6286 4.88422 0.9
      vertex 49.1408 4.63565 0.9
    endloop
  endfacet
  facet normal 0.156435 0.987688 -0
    outer loop
      vertex 48.6 4.55 0.9
      vertex 48.0592 4.63565 7.9
      vertex 48.6 4.55 7.9
    endloop
  endfacet
  facet normal 0.156435 0.987688 0
    outer loop
      vertex 48.0592 4.63565 7.9
      vertex 48.6 4.55 0.9
      vertex 48.0592 4.63565 0.9
    endloop
  endfacet
  facet normal -0.987688 0.156435 0
    outer loop
      vertex 50.2643 5.75922 0.9
      vertex 50.35 6.3 7.9
      vertex 50.35 6.3 0.9
    endloop
  endfacet
  facet normal -0.987688 0.156435 0
    outer loop
      vertex 50.35 6.3 7.9
      vertex 50.2643 5.75922 0.9
      vertex 50.2643 5.75922 7.9
    endloop
  endfacet
  facet normal -0 0 1
    outer loop
      vertex 0 28.2 8.9
      vertex 1.2 1.2 8.9
      vertex 1.2 28.2 8.9
    endloop
  endfacet
  facet normal 0 0 1
    outer loop
      vertex 1.2 1.2 8.9
      vertex 0 28.2 8.9
      vertex 0 1.2 8.9
    endloop
  endfacet
  facet normal 0 -1 0
    outer loop
      vertex 0 28.2 8.9
      vertex 1.2 28.2 15
      vertex 0 28.2 15
    endloop
  endfacet
  facet normal 0 -1 -0
    outer loop
      vertex 1.2 28.2 15
      vertex 0 28.2 8.9
      vertex 1.2 28.2 8.9
    endloop
  endfacet
  facet normal -0 0 1
    outer loop
      vertex 53.7 35.7 8.9
      vertex 54.9 8.7 8.9
      vertex 54.9 35.7 8.9
    endloop
  endfacet
  facet normal 0 0 1
    outer loop
      vertex 54.9 8.7 8.9
      vertex 53.7 35.7 8.9
      vertex 53.7 8.7 8.9
    endloop
  endfacet
  facet normal 0 1 -0
    outer loop
      vertex 54.9 8.7 8.9
      vertex 53.7 8.7 15
      vertex 54.9 8.7 15
    endloop
  endfacet
  facet normal 0 1 0
    outer loop
      vertex 53.7 8.7 15
      vertex 54.9 8.7 8.9
      vertex 53.7 8.7 8.9
    endloop
  endfacet
endsolid OpenSCAD_Model
